<?xml version="1.0" encoding="utf-8"?>
<!-- Generator: Adobe Illustrator 24.3.0, SVG Export Plug-In . SVG Version: 6.00 Build 0)  -->
<svg version="1.1" id="Capa_1" xmlns="http://www.w3.org/2000/svg" xmlns:xlink="http://www.w3.org/1999/xlink" x="0px" y="0px"
	 viewBox="0 0 409 54" style="enable-background:new 0 0 409 54;" xml:space="preserve">
<style type="text/css">
	.st0{fill:#FFFFFF;}
</style>
<g>
	<path class="st0" d="M40.4,42.8V21.6c0-1.1,0.1-2.8,0.3-5.3h-0.1C40.4,17,40.2,17.5,40,18c-0.2,0.5-0.3,0.9-0.5,1.2L28.8,42.8h-1.2
		L16.8,19.3c-0.3-0.7-0.6-1.7-1-3h-0.1c0.1,0.7,0.1,1.4,0.1,2.3c0,0.8,0,1.8,0,2.8v21.5h-2.8V12h3.4L27,35.2c0.2,0.5,0.4,1,0.6,1.5
		c0.2,0.5,0.4,1,0.6,1.6h0.1c0.2-0.6,0.4-1.1,0.5-1.6c0.2-0.5,0.4-1,0.6-1.5L40,12h3.2v30.8H40.4z"/>
	<path class="st0" d="M71.2,42.8l-3.4-9.1H54.6l-3.3,9.1h-3.2L59.8,12h2.9l11.7,30.8H71.2z M61.8,17.4c-0.1-0.3-0.2-0.6-0.3-0.9
		c-0.1-0.4-0.2-0.8-0.3-1.2h-0.1c-0.1,0.5-0.2,0.9-0.3,1.2c-0.1,0.4-0.2,0.7-0.3,0.9l-5,13.7h11.3L61.8,17.4z"/>
	<path class="st0" d="M84.9,14.7v28.2H82V14.7h-8.9V12h20.6v2.6H84.9z"/>
	<path class="st0" d="M108.5,14.7v28.2h-2.9V14.7h-8.9V12h20.6v2.6H108.5z"/>
	<path class="st0" d="M144.2,30.5c0,8.6-3.8,12.9-11.3,12.9c-7.2,0-10.8-4.1-10.8-12.4V12h2.9v18.6c0,3.4,0.7,5.9,2,7.6
		c1.4,1.7,3.5,2.5,6.3,2.5c5.4,0,8.1-3.3,8.1-9.8V12h2.9V30.5z"/>
	<path class="st0" d="M177.2,42.8h-8l-4.8-7.9c-0.4-0.6-0.7-1.1-1-1.6c-0.3-0.5-0.7-0.9-1-1.2c-0.3-0.3-0.7-0.6-1.1-0.8
		c-0.4-0.2-0.8-0.3-1.2-0.3h-1.9v11.8h-6.9V12h11c7.5,0,11.2,2.8,11.2,8.4c0,1.1-0.2,2.1-0.5,3c-0.3,0.9-0.8,1.7-1.4,2.5
		s-1.3,1.4-2.2,1.9c-0.9,0.5-1.8,0.9-2.8,1.2v0.1c0.5,0.1,0.9,0.4,1.3,0.7s0.8,0.7,1.2,1.1c0.4,0.4,0.8,0.9,1.1,1.4s0.7,1,1,1.5
		L177.2,42.8z M158.3,17.2v8.6h3c1.5,0,2.7-0.4,3.6-1.3c0.9-0.9,1.4-2,1.4-3.2c0-2.7-1.6-4-4.8-4H158.3z"/>
	<path class="st0" d="M198.5,42.8h-18.5V12h17.8v5.7H187v6.9h10.1v5.6H187v7h11.5V42.8z"/>
	<path class="st0" d="M231.2,42.8h-7.6l-2.2-6.9h-11l-2.2,6.9h-7.5L212,12h8.2L231.2,42.8z M219.8,30.7l-3.3-10.4
		c-0.2-0.8-0.4-1.7-0.5-2.8h-0.2c-0.1,0.9-0.3,1.8-0.5,2.7L212,30.7H219.8z"/>
	<path class="st0" d="M253.4,42.8H235V12h6.9v25.2h11.4V42.8z"/>
	<path class="st0" d="M276,42.8h-18.5V12h17.8v5.7h-10.8v6.9h10.1v5.6h-10.1v7H276V42.8z"/>
	<path class="st0" d="M279.5,41.7v-6.9c1.2,1,2.6,1.8,4.1,2.4c1.5,0.5,2.9,0.8,4.4,0.8c0.9,0,1.6-0.1,2.3-0.2
		c0.7-0.2,1.2-0.4,1.6-0.7c0.4-0.3,0.8-0.6,1-1c0.2-0.4,0.3-0.8,0.3-1.2c0-0.6-0.2-1.1-0.5-1.6s-0.8-0.9-1.4-1.3
		c-0.6-0.4-1.3-0.8-2.1-1.2s-1.7-0.8-2.6-1.1c-2.4-1-4.2-2.2-5.4-3.7c-1.2-1.4-1.8-3.2-1.8-5.2c0-1.6,0.3-3,1-4.1
		c0.6-1.2,1.5-2.1,2.6-2.8c1.1-0.7,2.4-1.3,3.9-1.6c1.5-0.4,3-0.5,4.6-0.5c1.6,0,3,0.1,4.3,0.3c1.2,0.2,2.4,0.5,3.4,0.9v6.4
		c-0.5-0.4-1.1-0.7-1.7-0.9c-0.6-0.3-1.2-0.5-1.9-0.7c-0.6-0.2-1.3-0.3-1.9-0.4c-0.6-0.1-1.2-0.1-1.8-0.1c-0.8,0-1.5,0.1-2.1,0.2
		s-1.2,0.4-1.6,0.6c-0.4,0.3-0.8,0.6-1,1c-0.2,0.4-0.4,0.8-0.4,1.3c0,0.5,0.1,1,0.4,1.4c0.3,0.4,0.7,0.8,1.2,1.2
		c0.5,0.4,1.1,0.7,1.8,1.1c0.7,0.4,1.5,0.7,2.4,1.1c1.2,0.5,2.3,1.1,3.3,1.6c1,0.6,1.8,1.2,2.5,2c0.7,0.7,1.2,1.6,1.6,2.5
		c0.4,0.9,0.6,2,0.6,3.3c0,1.7-0.3,3.2-1,4.3c-0.7,1.2-1.5,2.1-2.7,2.8c-1.1,0.7-2.4,1.2-3.9,1.6s-3,0.5-4.7,0.5
		c-1.7,0-3.3-0.1-4.8-0.4S280.7,42.2,279.5,41.7z"/>
	<path class="st0" d="M327.3,17.7h-8.8v25.2h-7V17.7h-8.7V12h24.5V17.7z"/>
	<path class="st0" d="M355.4,42.8h-7.6l-2.2-6.9h-11l-2.2,6.9H325L336.2,12h8.2L355.4,42.8z M344.1,30.7l-3.3-10.4
		c-0.2-0.8-0.4-1.7-0.5-2.8h-0.2c-0.1,0.9-0.3,1.8-0.5,2.7l-3.4,10.4H344.1z"/>
	<path class="st0" d="M377.8,17.7H369v25.2h-7V17.7h-8.7V12h24.5V17.7z"/>
	<path class="st0" d="M400.4,42.8H382V12h17.8v5.7h-10.8v6.9H399v5.6h-10.1v7h11.5V42.8z"/>
</g>
</svg>
