<?xml version="1.0" encoding="utf-8"?>
<!-- Generator: Adobe Illustrator 24.3.0, SVG Export Plug-In . SVG Version: 6.00 Build 0)  -->
<svg version="1.1" id="Capa_1" xmlns="http://www.w3.org/2000/svg" xmlns:xlink="http://www.w3.org/1999/xlink" x="0px" y="0px"
	 viewBox="0 0 108 93" style="enable-background:new 0 0 108 93;" xml:space="preserve">
<g>
	<path d="M96,84.2H83.6V35.4c0-4,0.2-8.9,0.7-14.7h-0.2c-0.8,3.3-1.5,5.7-2.1,7.1L59.6,84.2H51L28.4,28.3c-0.6-1.6-1.3-4.2-2-7.5
		h-0.2c0.3,3,0.4,7.9,0.4,14.8v48.7H15V8.8h17.6L52.5,59c1.5,3.9,2.5,6.7,2.9,8.6h0.3c1.3-4,2.3-6.9,3.2-8.8L79,8.8h17V84.2z"/>
</g>
</svg>
